<svg xmlns="http://www.w3.org/2000/svg" xmlns:xlink="http://www.w3.org/1999/xlink" viewBox="0 0 85.86 83.74"><defs><style>.cls-1{fill:url(#linear-gradient);}.cls-2{fill:url(#linear-gradient-2);}.cls-3{fill:url(#linear-gradient-3);}.cls-4{fill:url(#linear-gradient-4);}.cls-5{fill:url(#linear-gradient-5);}.cls-6{fill:url(#linear-gradient-6);}.cls-7{fill:url(#linear-gradient-7);}.cls-8{fill:url(#linear-gradient-8);}</style><linearGradient id="linear-gradient" x1="2.79" y1="42.34" x2="5.07" y2="42.34" gradientUnits="userSpaceOnUse"><stop offset="0" stop-color="#f15f79"/><stop offset="1" stop-color="#b24592"/></linearGradient><linearGradient id="linear-gradient-2" x1="80.79" y1="42.34" x2="83.06" y2="42.34" xlink:href="#linear-gradient"/><linearGradient id="linear-gradient-3" x1="13.8" y1="42.37" x2="17.4" y2="42.37" xlink:href="#linear-gradient"/><linearGradient id="linear-gradient-4" x1="69.79" y1="42.37" x2="73.39" y2="42.37" xlink:href="#linear-gradient"/><linearGradient id="linear-gradient-5" x1="25.79" y1="19.45" x2="57.04" y2="19.45" xlink:href="#linear-gradient"/><linearGradient id="linear-gradient-6" x1="29.54" y1="19.43" x2="60.79" y2="19.43" xlink:href="#linear-gradient"/><linearGradient id="linear-gradient-7" x1="25.79" y1="64.29" x2="57.04" y2="64.29" xlink:href="#linear-gradient"/><linearGradient id="linear-gradient-8" x1="29.54" y1="64.3" x2="60.79" y2="64.3" xlink:href="#linear-gradient"/></defs><title>hoodwink-logo</title><g id="Layer_2" data-name="Layer 2"><g id="Layer_1-2" data-name="Layer 1"><path class="cls-1" d="M.15,27.67C2.09,37.08,3,47.79.15,57.07c-1.13,3.7,4.66,5.28,5.79,1.6,3.16-10.34,2.16-22.13,0-32.6-.78-3.78-6.57-2.18-5.79,1.6Z"/><path class="cls-2" d="M79.92,26.07c-2.16,10.47-3.16,22.26,0,32.6,1.13,3.68,6.92,2.11,5.79-1.6-2.84-9.29-1.95-20,0-29.4.78-3.77-5-5.38-5.79-1.6Z"/><path class="cls-3" d="M11.15,13.67c4.4,18.49,4.13,39,0,57.4-.84,3.76,4.94,5.37,5.79,1.6,4.37-19.54,4.66-41,0-60.6-.89-3.75-6.68-2.17-5.79,1.6Z"/><path class="cls-4" d="M70.26,12.07c-4.65,19.57-4.37,41.06,0,60.6.84,3.77,6.63,2.17,5.79-1.6-4.13-18.44-4.4-38.92,0-57.4.89-3.75-4.89-5.36-5.79-1.6Z"/><path class="cls-5" d="M23,2.87c1.45,10.95,2.36,22,3,33a3.06,3.06,0,0,0,3,3H57c3.86,0,3.87-6,0-6H29l3,3c-.64-11-1.55-22.05-3-33-.5-3.77-6.51-3.82-6,0Z"/><path class="cls-6" d="M57.54,2.87c-1.09,11-1.87,22-2.5,33l3-3H29.54c-3.86,0-3.87,6,0,6H58a3.06,3.06,0,0,0,3-3c.63-11,1.41-22,2.5-33,.38-3.84-5.62-3.81-6,0Z"/><path class="cls-7" d="M29,80.87c1.45-10.95,2.36-22,3-33l-3,3H57c3.86,0,3.87-6,0-6H29a3.06,3.06,0,0,0-3,3c-.64,11-1.55,22.05-3,33-.5,3.82,5.5,3.78,6,0Z"/><path class="cls-8" d="M63.54,80.87c-1.09-11-1.87-22-2.5-33a3.06,3.06,0,0,0-3-3H29.54c-3.86,0-3.87,6,0,6H58l-3-3c.63,11,1.41,22,2.5,33,.38,3.81,6.38,3.85,6,0Z"/></g></g></svg>